<?xml version="1.0" encoding="UTF-8"?>
<svg id="Layer_1" data-name="Layer 1" xmlns="http://www.w3.org/2000/svg" viewBox="0 0 255.12 198.43">
  <defs>
    <style>
      .cls-1 {
        stroke-width: 0px;
      }
    </style>
  </defs>
  <path class="cls-1" d="M134.99,175.2c-3.26-3.45-6.65-7.18-10.2-10.76-7.79-7.88-15.66-15.69-23.48-23.54-3.38-3.39-6.68-6.87-10.15-10.16-1.43-1.35-1.51-2.12-.05-3.56,10.38-10.2,20.67-20.5,31-30.77,4.51-4.48,9.04-8.94,13.72-13.56.68.61,1.42,1.22,2.09,1.9,3.17,3.14,6.3,6.31,9.49,9.43,1.01.99,1.03,1.77.03,2.79-2.28,2.35-4.47,4.77-6.7,7.17-.35.05-.7.1-1.05.15-.73-1-1.43-2.03-2.19-3.01-1.15-1.51-2.2-1.32-3.49,0-4.42,4.57-8.93,9.06-13.43,13.56-4.27,4.27-8.53,8.53-12.86,12.73-1.03,1-1.15,1.63-.06,2.68,3.05,2.95,5.99,6.02,8.91,8.97,12.76-12.65,25.31-25.1,37.86-37.54,2.88,2.89,5.62,5.65,8.48,8.53-.68.71-1.42,1.53-2.2,2.31-11.22,11.23-22.43,22.47-33.7,33.65-1.37,1.36-1.58,2.13.02,3.53,2.66,2.32,5.07,4.95,7.54,7.48.75.77,1.32,1.1,2.25.16,9.15-9.21,18.34-18.39,27.5-27.58.22-.22.37-.52,1.02-1.35-1.22-.98-2.5-1.91-3.62-2.99-.31-.3-.46-1.31-.23-1.57,2.44-2.63,4.98-5.17,7.35-7.59,4.43,4.42,8.63,8.61,12.79,12.77-15.27,15.11-30.68,30.35-46.66,46.17Z"/>
  <path class="cls-1" d="M185.99,125.07c-1.43-1.64-2.68-3.25-4.11-4.68-11.02-11.05-22.08-22.06-33.11-33.1-3.01-3.01-6.02-6.03-8.95-9.13-.57-.6-1.03-1.59-1.03-2.39-.06-21.45-.05-42.9-.05-64.34,0-.29.12-.59.26-1.26,2.82,2.77,5.44,5.3,8.01,7.88,7.56,7.56,15.1,15.13,22.65,22.69,11.58,11.6,23.15,23.21,34.74,34.8,4.68,4.68,9.35,9.38,14.12,13.98,1.2,1.16,1.4,1.84.09,3.11-6.9,6.73-13.72,13.55-20.54,20.36-3.34,3.33-6.63,6.71-9.95,10.07-.54.55-1.12,1.06-2.13,2.02ZM151.3,39.55l-.58.16c0,.69,0,1.37,0,2.06,0,9.25.05,18.49-.03,27.74-.02,1.91.5,3.32,1.88,4.68,10.87,10.73,21.67,21.53,32.5,32.3.4.4.85.73,1.45,1.23,5.29-5.33,10.44-10.54,15.62-15.72,1.03-1.03.2-1.57-.45-2.22-4.88-4.85-9.76-9.71-14.62-14.58-11.49-11.5-22.98-23-34.47-34.5-.41-.41-.86-.77-1.29-1.15Z"/>
  <path class="cls-1" d="M67.97,91.01c5.94,5.9,11.41,11.33,16.94,16.82.75-.63,1.17-.93,1.53-1.29,4.28-4.25,8.59-8.47,12.81-12.78.97-.99,1.53-1.07,2.52-.08,2.35,2.36,4.82,4.6,7.33,6.97-8.26,8.1-16.15,15.84-24.17,23.72-.15-.13-.6-.48-1-.87-10.29-10.29-20.56-20.61-30.9-30.85-1.33-1.32-1.22-1.97.06-3.24,11.69-11.58,23.3-23.25,34.94-34.88,11.23-11.21,22.47-22.4,33.71-33.59,3.53-3.51,7.07-7,10.86-10.77.09.78.2,1.31.21,1.84.02,4.39.07,8.79-.03,13.18-.02.89-.39,2-.99,2.61-7.36,7.47-14.8,14.87-22.22,22.28-11.14,11.11-22.27,22.23-33.44,33.31-2.5,2.48-5.15,4.81-8.16,7.61Z"/>
  <path class="cls-1" d="M57.95,121.17c-1.84,1.94-3.72,3.83-5.49,5.83-1.03,1.16-1.78,1.2-2.84.02-.69-.76-1.7-1.23-2.56-1.83.16-.2.32-.4.48-.61.22-.31.4-.66.66-.92,4.03-4.04,8.1-8.04,12.09-12.11.97-.99,1.49-.89,2.54-.02,2.09,1.71,2.59,3.57,1.86,6.17-.79,2.8-1.14,5.73-1.68,8.6.15.09.29.17.44.26,2.2-2.46,4.4-4.92,6.76-7.57,1.63,1.78,2.72,2.97,3.96,4.32-.4.45-.84.99-1.33,1.48-3.75,3.76-7.55,7.47-11.25,11.28-1.03,1.05-1.63,1.19-2.85.13-1.91-1.66-2.49-3.35-1.79-5.84.8-2.87,1.15-5.87,1.69-8.82-.23-.12-.46-.25-.69-.37Z"/>
  <path class="cls-1" d="M83.29,151.88c-1.44,1.37-2.89,2.75-4.36,4.15-1.32-1.22-2.54-2.35-3.69-3.42,4.8-4.78,9.43-9.38,14.31-14.24,2.56,2.92,6.14,5.18,7.88,9.04,2.19,4.84-1.66,9.92-6.91,9.27-.44-.05-.89-.1-1.6-.19-.42,2.68-.83,5.3-1.33,8.52-1.75-1.76-3.18-3.14-4.51-4.61-.27-.3-.21-.99-.13-1.48.27-1.61.66-3.21.93-4.82.11-.65.02-1.33.02-1.99l-.63-.23ZM93.71,149.63c-1.59-1.64-2.72-2.8-3.86-3.97-.93.93-1.87,1.85-2.8,2.78,1.27,1.04,2.45,2.24,3.87,3,.38.21,1.49-.93,2.79-1.81Z"/>
  <path class="cls-1" d="M112.03,168.76c-1.97-2.6-3.21-4.78-4.95-6.42-2.41-2.27-5.58-1.96-7.75.29-2.17,2.25-2.21,5.26-.11,7.81.08.1.17.2.26.3,2.05,2.28,2.49,2.23,4.41-.56-.86-.91-1.74-1.84-2.85-3.02,1.11-.87,2.16-1.7,3.6-2.84,1.55,1.64,3.4,3.55,5.16,5.55.22.25.1,1.15-.19,1.44-1.99,2.08-4.03,4.12-6.13,6.1-.36.34-1.07.55-1.57.47-6.55-1-11.42-10.3-8.5-16.17,3.05-6.14,10.07-8.04,15.59-3.98,1.84,1.36,3.26,3.35,4.69,5.18,1.1,1.4,1.08,2.82-.53,4.07-.63.49-.92,1.42-1.14,1.78Z"/>
  <path class="cls-1" d="M77.11,146.79c-1.69,1.74-2.69,2.76-3.48,3.57-3.59-3.52-7.12-7-10.53-10.34,4.58-4.6,9.22-9.26,13.82-13.88,3.34,3.34,6.75,6.75,10.4,10.39-1.02.85-2.1,1.75-3.42,2.84-1.52-1.5-3.23-3.17-4.93-4.86-1.75-1.75-1.96-1.72-3.51.68,2.11,1.96,4.27,3.95,6.61,6.12-1.41,1.21-2.48,2.13-3.96,3.4-1.36-1.48-2.82-3.14-4.36-4.72-1.85-1.91-1.88-1.88-3.9.62,2.38,2.03,4.8,4.09,7.25,6.18Z"/>
  <path class="cls-1" d="M49.36,98.55c3.18,3.18,6.6,6.59,10.19,10.19-.94.89-2,1.9-3.34,3.18-2.15-2.3-4.23-4.53-6.26-6.7-2.57,1.65-2.64,1.84-.82,3.56,1.66,1.57,3.43,3.02,5.15,4.52-.17.17-.34.34-.51.51-.04.12-.05.27-.13.36q-2.57,3.05-5.38.26c-1.21-1.2-2.42-2.4-3.63-3.59-.04-.04-.12-.05-.18-.08-2.49,1.22-2.6,1.69-.78,3.51,1.34,1.35,2.62,2.76,4.05,4.01,1.11.97,1.18,1.65.02,2.64-.67.57-1.05,1.49-1.55,2.24-3.94-4.03-7.36-7.54-10.57-10.83,4.43-4.44,9.07-9.1,13.75-13.78Z"/>
  <path class="cls-1" d="M117.62,166.12c1.12,1.27,2.33,2.48,3.33,3.84.35.47.38,1.34.26,1.97-.36,1.91-.87,3.79-1.45,6.19,2.09-.5,3.81-.8,5.44-1.34,1.59-.53,2.74-.23,3.77,1.09.75.96,1.67,1.78,2.82,2.98-1.7.41-3.01.72-4.31,1.03-.45.11-.89.21-1.35.29-5.33.96-10.71,1.8-13.68,7.71-1.47-1.46-2.55-2.46-3.54-3.56-.2-.22-.03-.79,0-1.2,0-.1.16-.21.27-.28,4.7-3.09,5.64-8.05,6.54-13.06.32-1.79.8-3.55,1.2-5.33.23-.11.45-.22.68-.33Z"/>
  <path class="cls-1" d="M51.5,78.83c-1.38-1.43-2.72-2.82-4.02-4.18s-2.59-2.72-3.85-4.08c-.12-.13-.16-.42-.14-.71s.1-.59.23-.73c.62-.67,1.26-1.34,1.91-1.98s1.33-1.26,2.05-1.82c1-.79,1.98-1.08,2.89-.92s1.77.76,2.52,1.77c.17.23.4.44.65.62s.54.32.81.39c1.48.39,2.52,1.24,2.95,2.3s.26,2.33-.66,3.56c-.74.98-1.57,1.89-2.47,2.83s-1.87,1.89-2.88,2.97ZM52.51,74.76c.42-.68.81-1.27,1.16-1.83s.66-1.09.93-1.64c.03-.07-.2-.35-.47-.6s-.56-.47-.64-.43c-.54.29-1.06.62-1.63,1.01s-1.17.82-1.89,1.31c.47.41.85.73,1.24,1.07s.79.68,1.3,1.11ZM48.8,71.09c.33-.54.64-.99.9-1.42s.49-.82.66-1.24c.03-.07-.23-.32-.5-.54s-.57-.42-.61-.38c-.36.28-.7.58-1.02.9s-.61.67-.86,1.05c-.04.06.14.28.42.58s.66.67,1.01,1.06Z"/>
  <path class="cls-1" d="M97.86,32.1c-.97,1.28-1.46,1.91-1.96,1.98s-1.02-.44-2.05-1.46c-1.12-1.1-2.25-2.19-3.43-3.33s-2.39-2.32-3.7-3.59c.68-.61,1.31-1.16,1.92-1.7s1.18-1.05,1.76-1.58c.78-.72,1.59-1.36,2.49-1.7s1.87-.4,2.99.03c.92.36,1.54.88,1.94,1.71s.58,1.95.6,3.5c.36.07.72.14,1.09.21s.75.14,1.12.21c.37.07.74.13,1.12.2s.76.13,1.14.2c-.71,2-1.85,2.61-3.21,2.7s-2.94-.35-4.55-.46c.58.66,1.06,1.21,1.49,1.7s.82.94,1.23,1.4ZM93.09,27.26c.12,0,.23,0,.35,0s.23,0,.35,0c.21-.49.43-.97.64-1.46s.41-.98.57-1.48c.01-.04-.23-.23-.5-.39s-.58-.3-.69-.23c-.38.21-.79.45-1.14.73s-.65.59-.8.96c-.08.19.11.5.39.84s.62.71.84,1.03Z"/>
  <path class="cls-1" d="M79.01,38.58c-.71.5-1.33.91-1.89,1.29s-1.06.74-1.5,1.16c-.88.81-1.34,1.74-1.4,2.65s.28,1.81,1.01,2.56c.74.76,1.63,1.13,2.54,1.09s1.84-.48,2.65-1.34c.18-.19.33-.53.41-.86s.08-.67-.03-.85c-.29-.47-.61-.59-.94-.51s-.65.37-.95.7c-.1.12-.22.22-.39.36s-.37.29-.64.53c-.27-.29-.54-.57-.83-.87s-.59-.62-.95-.99c.72-.69,1.39-1.32,2.07-1.97s1.38-1.31,2.17-2.06c.68.74,1.36,1.46,2.02,2.19s1.32,1.44,1.96,2.17c.11.12.18.31.21.5s.04.41.01.58c-.18,1.21-1.17,2.56-2.47,3.63s-2.89,1.87-4.26,1.98c-1.45.11-2.86-.32-4.02-1.14s-2.08-2.02-2.55-3.47c-.51-1.59-.07-3.63.91-5.33s2.49-3.06,4.13-3.31c.38-.06.79.14,1.25.42s.95.64,1.48.91Z"/>
  <path class="cls-1" d="M54.06,58.56c.86.93,1.63,1.83,2.4,2.68s1.52,1.65,2.34,2.39c.33.3.81.56,1.31.73s1.02.23,1.44.15c.88-.19,1.4-.78,1.52-1.53s-.16-1.63-.89-2.38c-.79-.82-1.61-1.6-2.48-2.39s-1.77-1.6-2.72-2.47c.51-.51.93-.94,1.33-1.35s.79-.79,1.22-1.24c1.04,1.11,2.07,2.13,3.05,3.14s1.9,2.01,2.73,3.09c.85,1.09,1.14,2.31.95,3.5s-.85,2.37-1.91,3.38c-1.02.97-2.18,1.55-3.35,1.68s-2.36-.2-3.43-1.04c-.95-.75-1.88-1.53-2.76-2.37s-1.71-1.72-2.47-2.65c-.63-.78-.4-1.23.08-1.68s1.23-.88,1.62-1.63Z"/>
  <path class="cls-1" d="M116.35,13.81c-.67.66-1.17,1.39-1.77,1.81s-1.28.52-2.32-.1c-.41-.24-1.28.36-1.99,1.11s-1.25,1.67-1,2.06c.66,1.02.54,1.66.13,2.18s-1.13.93-1.65,1.5c-.17-.22-.34-.41-.49-.59s-.28-.35-.37-.53c-.72-1.51-1.42-3.03-2.13-4.54s-1.43-3.02-2.2-4.51c-.36-.7-.33-1.2-.12-1.64s.61-.8.98-1.21c.38-.43.74-.69,1.15-.78s.85,0,1.41.28c1.66.84,3.34,1.64,5.06,2.45s3.48,1.63,5.31,2.5ZM109.34,13.88c-.61-.34-1.15-.64-1.64-.92s-.95-.53-1.4-.78c-.06.06-.12.12-.18.18s-.12.12-.18.18c.26.47.51.93.8,1.45s.6,1.09.98,1.77c.32-.37.57-.66.82-.95s.49-.57.8-.92Z"/>
  <path class="cls-1" d="M94.76,35.36c-.65.68-1.13,1.36-1.71,1.76s-1.25.53-2.29.12c-.28-.11-.79.37-1.36,1s-1.21,1.43-1.74,1.96c.69.94.61,1.59.22,2.16s-1.11,1.04-1.72,1.62c-.18-.26-.36-.5-.52-.73s-.32-.46-.43-.71c-.69-1.45-1.35-2.9-2.03-4.36s-1.36-2.9-2.09-4.32c-.34-.65-.38-1.15-.23-1.6s.49-.83.92-1.27c.41-.41.78-.71,1.2-.84s.89-.06,1.49.24c1.65.84,3.32,1.65,5.03,2.47s3.46,1.63,5.27,2.5ZM84.7,33.66c-.06.06-.12.12-.17.18s-.12.12-.17.18c.26.48.53.95.82,1.48s.61,1.1.99,1.78c.34-.34.61-.62.88-.89s.53-.54.85-.86c-.66-.38-1.22-.71-1.74-1.01s-.99-.57-1.46-.85Z"/>
  <path class="cls-1" d="M63.54,49.24c1.09,1.22,2.12,2.38,3.14,3.52s2.03,2.27,3.07,3.44c.87-.83,1.68-1.6,2.46-2.33s1.51-1.43,2.24-2.13c1.19.8,1.79,1.22,1.87,1.66s-.36.9-1.25,1.77c-.74.73-1.47,1.48-2.21,2.22s-1.48,1.47-2.26,2.17c-.17.16-.5.28-.82.34s-.62.04-.75-.07c-1.35-1.27-2.68-2.57-4.03-3.89s-2.71-2.69-4.13-4.09c.43-.42.81-.8,1.23-1.21s.87-.86,1.44-1.41Z"/>
  <path class="cls-1" d="M97.82,15.08c1.45,1.46,2.86,2.88,4.25,4.29s2.78,2.8,4.17,4.21c-.63,1.21-1.06,1.85-1.58,1.92s-1.14-.4-2.13-1.39c-1.06-1.06-2.12-2.12-3.18-3.19s-2.11-2.13-3.17-3.19c-.07-.07-.12-.15-.19-.26s-.15-.26-.28-.47c.33-.3.68-.62,1.03-.94s.71-.65,1.07-.98Z"/>
</svg>